# xmcd CD database file
#
# Track frame offsets:
#	150
#	19275
#	32025
#	48825
#	70875
#	89325
#	113850
#	125550
#	144600
#	157088
#	175389
#	197889
#
# Disc length: 2809 seconds
#
# Revision: 0
# Processed by: cddbd v1.5.1PL0 Copyright (c) Steve Scherf et al.
# Submitted via: CDex 1.51
#
DISCID=ae0af70c
DTITLE=John Bucchino - On Richard Rodgers' Piano
DYEAR=2003
DGENRE=Jazz
TTITLE0=Do Re Mi and The Surrey With The Fringe On Top
TTITLE1=My Favorite Things
TTITLE2=Isn't It Romantic
TTITLE3=Edelweiss
TTITLE4=My Romance
TTITLE5=It Might As Well Be Spring
TTITLE6=The Lady Is A Tramp
TTITLE7=Where Or When
TTITLE8=You Took Advantage Of Me
TTITLE9=If I Loved You
TTITLE10=My Funny Valentine
TTITLE11=Something Good
EXTD=YEAR: 2003
EXTT0=
EXTT1=
EXTT2=
EXTT3=
EXTT4=
EXTT5=
EXTT6=
EXTT7=
EXTT8=
EXTT9=
EXTT10=
EXTT11=
PLAYORDER=
